<?xml version="1.0" standalone="no"?><!DOCTYPE svg PUBLIC "-//W3C//DTD SVG 1.1//EN" "http://www.w3.org/Graphics/SVG/1.1/DTD/svg11.dtd"><svg t="1690806956447" class="icon" viewBox="0 0 1038 1024" version="1.1" xmlns="http://www.w3.org/2000/svg" p-id="2651" width="129.75" height="128" xmlns:xlink="http://www.w3.org/1999/xlink"><path d="M583.68898 997.060509h-128.710903c-236.468869 0-428.038585-191.569716-428.038586-428.038586v-35.919321c0-214.617948 158.942999-396.010523 371.465654-424.446653 1.795966-2.693949 3.89126-5.088571 5.687226-7.78252 74.233265-97.880152 149.963169-98.478807 226.591055-1.197311 2.394621 2.993277 4.489915 5.986554 6.884537 8.979831 214.019293 26.939491 374.159602 208.930722 374.159602 424.446653v35.919321c0 236.468869-191.569716 428.038585-428.038585 428.038586z" fill="#FDD100" p-id="2652"></path><path d="M258.918445 379.846828c38.313943 5.986554 63.158141 48.491084 55.674949 94.587548-7.483192 46.096463-44.300497 78.72318-82.61444 72.437299-38.313943-5.986554-63.158141-48.491084-55.674949-94.587548 7.483192-46.096463 44.599825-78.423853 82.61444-72.437299z" fill="#281C26" p-id="2653"></path><path d="M212.522654 426.841274a28.43613 26.939491 90 1 0 53.878983 0 28.43613 26.939491 90 1 0-53.878983 0Z" fill="#FFFFFF" p-id="2654"></path><path d="M206.536101 476.230342m-14.966385 0a14.966384 14.966384 0 1 0 29.932769 0 14.966384 14.966384 0 1 0-29.932769 0Z" fill="#FFFFFF" p-id="2655"></path><path d="M778.251973 381.044139C740.237357 387.33002 715.39316 429.235896 722.577024 475.332359c7.483192 45.797135 44.300497 78.124525 82.61444 71.838644 38.014616-5.986554 63.158141-48.191757 55.674949-93.988893-7.483192-45.797135-44.300497-78.124525-82.61444-72.137971z" fill="#281C26" p-id="2656"></path><path d="M773.46273 398.704472c14.667056-1.496638 28.136802 10.476469 29.932768 26.939492 1.795966 16.463023-8.680503 31.130079-23.646886 32.626717-14.667056 1.496638-28.136802-10.476469-29.932769-26.939491-1.795966-16.463023 8.97983-31.130079 23.646887-32.626718z" fill="#FFFFFF" p-id="2657"></path><path d="M757.299035 485.210172m-14.966384 0a14.966384 14.966384 0 1 0 29.932768 0 14.966384 14.966384 0 1 0-29.932768 0Z" fill="#FFFFFF" p-id="2658"></path><path d="M768.972815 838.416837H733.951476c-48.491084 18.258989-126.016954 29.932768-213.121309 29.932768s-164.630225-11.67378-213.12131-29.932768h-35.021339c-71.239988 0-137.990061-58.967553-137.990061-131.70418s58.967553-131.70418 131.70418-131.70418h68.246711c36.21865-53.579655 105.961999-89.798305 186.181819-89.798305s149.963169 36.21865 186.181818 89.798305H772.265419c72.736627 0 131.70418 58.967553 131.704181 131.70418s-63.756796 131.70418-134.996785 131.70418z" fill="#F07D00" p-id="2659"></path><path d="M788.728442 736.645425c-3.591932 0-7.183864-0.598655-10.476469-2.095293-64.355452 10.476469-155.949722 17.061678-257.421806 17.061677s-193.066355-6.585209-257.421807-17.061677c-14.667056 5.687226-31.130079-1.197311-36.817305-15.864368s1.197311-31.130079 15.864367-36.817304 31.130079 1.197311 36.817305 15.864367c0.299328 0.897983 0.598655 1.795966 0.897983 2.394621 63.158141 9.578486 147.568547 15.565039 240.659457 15.56504s177.501315-5.986554 240.659456-15.56504c4.489915-14.966384 20.354282-23.646887 35.320666-19.156972 14.966384 4.489915 23.646887 20.354282 19.156972 35.320667-3.591932 11.973107-14.667056 20.354282-27.238819 20.354282z" fill="#281C26" p-id="2660"></path></svg>